<svg xmlns="http://www.w3.org/2000/svg" width="320" height="120" viewBox="0 0 320 120" role="img" aria-labelledby="logoTitle">
  <title id="logoTitle">Ser Mais Digital</title>
  <defs>
    <linearGradient id="orangeGrad" x1="0%" y1="0%" x2="100%" y2="100%">
      <stop offset="0%" stop-color="#E8650A"/>
      <stop offset="100%" stop-color="#FF7A20"/>
    </linearGradient>
  </defs>
  <rect x="0" y="0" width="320" height="120" rx="30" fill="#0d1020"/>
  <rect x="16" y="22" width="64" height="64" rx="16" fill="url(#orangeGrad)"/>
  <path d="M36 40h12v8H36v24h-8V48H12v-8h16V28h8v12Zm20 22c0 8.8-7.2 16-16 16s-16-7.2-16-16 7.2-16 16-16 16 7.2 16 16Zm-8 0c0-4.4-3.6-8-8-8s-8 3.6-8 8 3.6 8 8 8 8-3.6 8-8Z" fill="#fff"/>
  <text x="100" y="62" font-family="Syne, sans-serif" font-size="34" font-weight="800" fill="#ffffff">Ser Mais</text>
  <text x="100" y="86" font-family="DM Sans, sans-serif" font-size="16" fill="#b8c3d4">Digital</text>
</svg>
